<?xml version="1.0" encoding="UTF-8"?>
<svg id="Warstwa_1" data-name="Warstwa 1" xmlns="http://www.w3.org/2000/svg" version="1.1" viewBox="0 0 919.91 278.31">
  <defs>
    <style>
      .cls-1 {
        fill: #fd0300;
      }

      .cls-1, .cls-2, .cls-3, .cls-4, .cls-5 {
        stroke-width: 0px;
      }

      .cls-2 {
        fill: #05b85d;
      }

      .cls-3 {
        fill: #fdc904;
      }

      .cls-4 {
        fill: #122dc9;
      }

      .cls-5 {
        fill: #fff;
      }
    </style>
  </defs>
  <g>
    <rect class="cls-4" x="322.8" y="-318.8" width="274.31" height="915.91" rx="13.88" ry="13.88" transform="translate(320.8 599.11) rotate(-90)"/>
    <path class="cls-5" d="M904.03,278.31H15.88C7.12,278.31,0,271.18,0,262.42V15.88C0,7.12,7.12,0,15.88,0h888.15c8.76,0,15.88,7.12,15.88,15.88v246.54c0,8.76-7.12,15.88-15.88,15.88ZM15.88,4c-6.55,0-11.88,5.33-11.88,11.88v246.54c0,6.55,5.33,11.88,11.88,11.88h888.15c6.55,0,11.88-5.33,11.88-11.88V15.88c0-6.55-5.33-11.88-11.88-11.88H15.88Z"/>
  </g>
  <g>
    <path class="cls-5" d="M340.01,175.85h30.93s-2.48,14.19-2.48,14.19h-49.65s3.6-20.38,3.6-20.38c6.12.34,12.31.64,18.54.94l-.94,5.25Z"/>
    <path class="cls-5" d="M352.92,102.47l-4.95,28.22h25s-2.55,14.34-2.55,14.34h-25s-3,17.08-3,17.08c-6.49.11-12.72.19-18.73.26l13.06-74.09h48.34s-2.48,14.19-2.48,14.19h-29.69Z"/>
    <path class="cls-5" d="M401.3,160.95c-6.23.15-12.35.3-18.32.45l8.93-50.56h18.24s-8.86,50.11-8.86,50.11Z"/>
    <path class="cls-5" d="M413.53,172.32c6.12.04,12.31.04,18.5,0l-3.11,17.72h-18.05s1.39-8.03,1.39-8.03c-.83,2.06-1.99,3.79-3.53,5.03-2.44,1.99-5.55,3-9.31,3h-5.03c-5.67,0-9.61-1.43-11.75-4.2-2.14-2.81-2.74-6.72-1.88-11.78l.38-2.14c6.04.15,12.09.23,18.2.3-.15,1.24.04,2.14.49,2.66.53.64,1.65.98,3.38.98h4.84c1.8,0,3.19-.41,4.05-1.24.6-.53,1.05-1.28,1.43-2.29Z"/>
    <path class="cls-5" d="M442.88,110.84l-8.67,49.17c-6.27.19-12.42.38-18.5.56l8.78-49.73h18.39Z"/>
    <path class="cls-5" d="M445.77,172.24c6.04-.07,12.12-.19,18.24-.3l-3.19,18.09h-18.2s3.15-17.79,3.15-17.79Z"/>
    <path class="cls-5" d="M491.79,110.54l-2.78,15.8h-6.79c-6.76,0-10.85,3.87-12.2,11.6l-.6,3.42-3.11,17.53c-6.16.26-12.27.49-18.32.68l8.59-48.72h18.05s-1.84,10.43-1.84,10.43c.45-.98.94-1.99,1.58-2.93,1.54-2.33,3.53-4.2,6.01-5.63,2.44-1.46,5.29-2.18,8.52-2.18h2.89Z"/>
    <path class="cls-5" d="M546.55,115.04c-2.14-2.81-6.27-4.2-12.42-4.2h-18.2c-6.23,0-10.92,1.39-14.04,4.2-3.15,2.78-5.14,6.72-6.04,11.79l-4.92,27.89-.56,3.19c5.97-.23,11.97-.49,18.05-.83l4.95-28.19c.3-1.69.83-2.85,1.58-3.45.75-.6,2.06-.9,3.87-.9h7.43c1.84,0,3,.3,3.57.9.53.6.64,1.76.34,3.45l-4.84,27.4c6.01-.3,12.05-.64,18.09-.94l5.03-28.52c.86-5.07.26-9.01-1.88-11.79ZM522.56,171.94c-.3,1.61-.83,2.74-1.58,3.42-.75.64-2.06.94-3.87.94h-7.43c-1.84,0-3-.3-3.53-.94-.53-.68-.68-1.8-.38-3.42l.22-1.2c-6,.23-12.01.41-18.02.6l-.49,2.7c-.86,5.07-.26,8.97,1.88,11.78,2.14,2.78,6.34,4.2,12.57,4.2h18.2c6.16,0,10.77-1.43,13.89-4.2,3.11-2.81,5.14-6.72,6.04-11.78l.86-4.95c-6.04.34-12.05.64-18.05.94l-.34,1.91Z"/>
    <path class="cls-5" d="M620.48,92.45c-2.25-2.78-6.49-4.17-12.72-4.17h-38.7s-11.67,66.24-11.67,66.24c6.23-.34,12.46-.75,18.73-1.13l1.43-8.03h14.68c1.84,0,3,.3,3.57.86.53.6.64,1.76.34,3.49l-.41,2.36c6.19-.41,12.39-.86,18.62-1.35l.11-.56c.53-3.12.45-5.59-.3-7.47s-2.21-3.27-4.43-4.13c2.51-.86,4.5-2.33,5.93-4.43,1.46-2.1,2.44-4.77,3.04-7.99l3.87-21.92c.86-5.07.19-8.97-2.06-11.78ZM603.82,106.19l-3.75,21.28c-.3,1.61-.83,2.74-1.58,3.38-.75.64-2.06.98-3.87.98h-14.68s5.29-29.99,5.29-29.99h14.67c1.8,0,3,.26,3.53.86.56.6.68,1.76.38,3.49ZM592.19,172.13c-.3,1.73-.83,2.85-1.58,3.45-.75.6-2.03.9-3.87.9h-14.67s1.65-9.42,1.65-9.42c-6.23.45-12.5.86-18.77,1.24l-3.83,21.73h38.7c6.23,0,11-1.43,14.22-4.2,3.23-2.81,5.29-6.72,6.19-11.78l1.76-9.98c-6.19.56-12.42,1.05-18.65,1.58l-1.16,6.49Z"/>
    <path class="cls-5" d="M681.66,115.04c-2.25-2.81-6.46-4.2-12.57-4.2h-17.08c-6.16,0-10.85,1.39-14.15,4.2-3.27,2.78-5.37,6.72-6.27,11.79l-4.02,22.93c17.72-1.39,35.39-2.96,52.88-4.65l.22-1.2,3-17.08c.9-5.07.23-9.01-2.03-11.79ZM665.79,128.74l-2.66,15.16h-16.78s2.66-15.16,2.66-15.16c.3-1.73.83-2.89,1.58-3.45.75-.6,1.99-.9,3.72-.9h7.73c1.84,0,2.97.3,3.45.9.49.56.6,1.73.3,3.45ZM657.83,171.94c-.26,1.61-.79,2.74-1.46,3.42-.71.64-1.99.94-3.83.94h-7.39c-1.73,0-2.85-.26-3.42-.86-.53-.6-.64-1.76-.34-3.49l1.91-10.88c-5.97.64-12.01,1.24-18.05,1.8l-1.95,11.18c-.9,5.07-.19,8.97,2.1,11.78,2.29,2.78,6.53,4.2,12.65,4.2h16.78c6.12,0,10.81-1.43,14.11-4.2,3.26-2.81,5.37-6.72,6.27-11.78l1.43-8.07h-17.75s-1.05,5.97-1.05,5.97Z"/>
    <path class="cls-5" d="M711.73,175.36h5.97s-2.59,14.68-2.59,14.68h-11.26c-6.23,0-10.51-1.43-12.72-4.2-2.25-2.81-2.93-6.72-2.06-11.78l3.3-18.73c6.31-.83,12.54-1.69,18.69-2.59l-3.23,18.28c-.3,1.69-.19,2.85.38,3.45.53.6,1.73.9,3.53.9Z"/>
    <path class="cls-5" d="M729.25,110.84l-2.51,14.19h-10.81s-2.93,16.66-2.93,16.66c-6.16.71-12.35,1.35-18.58,1.99l3.3-18.65h-7.92s2.51-14.19,2.51-14.19h7.88s2.51-14.19,2.51-14.19h18.2s-2.48,14.19-2.48,14.19h10.81Z"/>
    <polygon class="cls-5" points="756.13 89.08 739.85 89.08 732.4 131.33 737.4 131.33 754.29 99.56 756.13 89.08"/>
    <path class="cls-5" d="M813.44,104.23l-2.03,11.45c-.83,4.73-2.1,8.82-3.83,12.27-.11.23-.23.45-.38.68-1.31,2.48-3,5.07-5.14,7.81-.6.83-1.28,1.65-1.99,2.48l-27.62,36.93h28.86s-2.52,14.19-2.52,14.19h-50.78s2.36-13.4,2.36-13.4l27.96-35.21,5.82-7.36c.56-.68,1.09-1.31,1.58-1.95,2.03-2.66,3.57-5.07,4.54-7.24,1.24-2.7,2.18-5.86,2.81-9.53l1.5-8.52c.3-1.73.19-2.89-.34-3.49-.56-.56-1.69-.86-3.42-.86h-4.65c-1.84,0-3.12.3-3.87.86-.75.6-1.28,1.76-1.58,3.49l-2.66,15.16h-18.54s3.12-17.75,3.12-17.75c.9-5.07,2.97-8.97,6.19-11.78,3.23-2.78,7.96-4.17,14.19-4.17h15.46c6.27,0,10.51,1.39,12.84,4.17,2.29,2.81,3,6.72,2.1,11.78Z"/>
    <polygon class="cls-5" points="874.45 156 864.78 156 868.25 136.32 850.67 136.32 847.2 156 827.22 156 872.69 88.27 854.15 88.27 810.54 154.54 807.75 170.35 814.04 170.35 817.59 170.35 844.67 170.35 841.2 190.02 858.78 190.02 862.25 170.35 871.92 170.35 874.45 156"/>
  </g>
  <rect class="cls-5" x="274.91" y="2.26" width="4" height="273.78"/>
  <g>
    <g>
      <g>
        <path class="cls-5" d="M174.04,70.12c-1.54.56-3.54,1.63-5.52,3.71l-31.23-2.64c-1.51-1.12-8.05-5.61-16.77-6.6,3.42-.84,6.9-1.46,10.4-1.84,4.94,1.78,11.54,4.58,15.03,7.87l.09.09,14.74,1.01.12-.11s3.26-3.01,7.67-3.87c1.85.72,3.69,1.52,5.47,2.38Z"/>
        <path class="cls-5" d="M94.97,158.67c-3.65,7.78-5.98,21.66-6.68,26.3-8.5-.45-14.78-2.73-19.2-6.98-5.17-10.02-8.18-21.31-8.73-32.63,3.03-5.08,12.28-9.65,15.58-11.15,6.27,13.25,15.85,21.85,19.02,24.46Z"/>
        <path class="cls-5" d="M88.64,101.18l-13.08,29.84c-2.59,1.13-10.46,4.78-15.28,9.6.03-3.01.24-6.04.63-9.06,6.63-10.58,16.16-9.51,16.25-9.49l.27.03,6.39-13.56.11-.23-.17-.18c-6.37-7.04-6.28-13.31-5.06-17.36.75-.9,1.48-1.73,2.17-2.5.95-1.04,1.94-2.08,2.98-3.1-.09.8-.08,1.58.06,2.37.71,4.46,3.71,11.39,4.73,13.65Z"/>
        <path class="cls-5" d="M134.26,72.8c-7.13,6.75-10.96,17.24-12.1,20.84-13.49-2.91-26.8,3.13-31.12,5.38-1.16-2.65-3.54-8.39-4.11-11.98-.48-3.04,1.49-6.19,6.03-9.63.93-.69,1.93-1.37,2.92-2.03,2.77-1.78,6.21-3.62,10.22-5.49,3.81-1.78,7.52-2.44,10.97-2.44,7.99,0,14.51,3.6,17.2,5.35Z"/>
        <path class="cls-5" d="M206.64,106.17c-6.63-5.73-13.16-6.54-16.32-6.54h-.44c-1.82-8.38-8.24-15.61-13.34-20.24-2.02-1.84-3.83-3.26-5.08-4.17,2.82-2.55,5.38-2.73,6.3-2.7,1.96,1.04,11.24,6.25,20.48,16.31,6.37,6.93,8.02,13.55,8.39,17.35Z"/>
        <path class="cls-5" d="M182.42,155.27c-2.56,2.49-14.41,13.5-27.49,18.22-2.5-1.67-13.46-9.39-23.87-21.67l12.28-30.17c3.16-.24,16.86-.95,31.75,3,1.28,2.67,6.66,14.87,7.32,30.62Z"/>
        <path class="cls-5" d="M163.74,214.3c-.98,1.19-2.38,2.71-4.04,4.02-13.97,3.65-28.65,3.44-42.47-.62-.56-2.08-1.16-4.93-1.05-7.4,4.66,1.12,16.14,2.52,31.24-5.2,2.37,2.11,9.52,8.03,16.32,9.19Z"/>
        <path class="cls-5" d="M218.82,145.24c-.18-.26-.38-.51-.59-.75l-8.51-34.8c.09-.74.23-2.8-.24-5.68,2.2,4.1,4.04,8.41,5.49,12.82-.08,2.02-.44,2.59-.65,2.76l-.18.14,3.1,15.49.12.09s.63.44,1.39,1.27c.18,2.88.21,5.79.08,8.67Z"/>
        <path class="cls-5" d="M198.46,194.75s-.11.11-.15.15c-1.21,1.34-2.5,2.67-3.86,3.96-2.23.87-3.03.75-3.3.6l-.21-.12-13.88,9.72-.11.08-.05.14s-.45,1.52-1.79,3.24c-2.94,1.48-6.01,2.77-9.13,3.87.89-1.07,1.49-1.93,1.78-2.35l29.63-19.29c.29,0,.65.02,1.07,0Z"/>
        <path class="cls-5" d="M106.23,207.68l.26-.29-14.47-12.75-.24.21s-3.42,2.94-8.83,2.26c-3.83-3.92-7.26-8.21-10.2-12.81,4.39,2.28,9.74,3.51,16.26,3.75l24.23,20.87c-.33,2.56.09,5.47.57,7.67-3.33-1.13-6.62-2.52-9.77-4.08.3-1.93,1.03-3.56,2.19-4.84Z"/>
        <path class="cls-5" d="M217.31,150.76v.06c-.15,18.94-15.73,39.48-16.35,40.31-.17.15-.63.33-1.4.45,6.39-12.64,5.98-21.41,5.62-24.19,7.46-4.58,10.73-11.71,12.13-16.64Z"/>
      </g>
      <g>
        <path class="cls-5" d="M202.11,167.61l-17.86-9.83c-3.54,3.41-15.06,13.8-28.24,18.57l-6.65,26.39c2,1.78,10.19,8.68,16.59,8.68h.24l29.61-19.31c7.25-13.28,6.6-22.39,6.3-24.5ZM197.42,166.93c-8.53,11.65-7.84,27.68-7.82,27.85v.2l-15.31,10.93-.23-.17c-13.65-9.65-21.64-9.27-21.72-9.27l-.51.03,3.23-12.66.36.09c16.06,3.72,32.11-22.14,32.28-22.41l.18-.3,9.8,5.38-.26.33Z"/>
        <path class="cls-5" d="M206.76,110.54c-7.26-7.69-14.75-7.97-17.18-7.84l-11.68,20.69c1.33,2.76,6.86,15.21,7.58,31.57l17.98,9.89c10.08-6.13,11.65-17.89,11.82-19.53l-8.51-34.78ZM199.38,161.17l-.17.38-9.75-5.35.11-.3c6.69-19.17-7.94-37.27-8.08-37.45l-.18-.2,6.22-10.13.33.26c8.85,6.89,19.67,11.85,19.77,11.91l.17.08.05.17,4.52,18.45-.12.14c-6.96,8.47-12.81,21.93-12.87,22.06Z"/>
        <path class="cls-5" d="M168.59,76.92l-31.35-2.65c-7.54,6.48-11.48,18.14-12.34,20.89l18.08,23.43c1.05-.08,3.35-.21,6.48-.21,6.21,0,15.78.54,25.95,3.18l11.6-20.57c-2.22-12.24-16.41-22.65-18.43-24.07ZM177.22,114.73c-20.19-15.57-37.1-2.34-37.27-2.2l-.3.24-9.6-12.45.35-.23c11.92-7.61,16.58-23.25,16.62-23.42l.09-.29,14.96,1.27.08.24c3.26,12.12,21.16,26.63,21.34,26.76l.26.21-6.21,10.11-.32-.26Z"/>
        <path class="cls-5" d="M140.3,165.75c-4.16-3.8-8.06-7.82-11.59-12l-30.79,5.85c-3.72,7.61-6.15,22.82-6.68,26.33l24.4,21.04c1.69.53,14,3.87,30.7-4.78l6.63-26.34c-2-1.36-6.81-4.78-12.67-10.1ZM146.51,195.99c-19.59-2.67-34.03,6.24-34.18,6.33l-.24.15-14.42-12.73.26-.27c10.31-11.48,7.2-29.33,7.17-29.51l-.06-.36,15.69-3.07.14.27c10.32,20.95,28.8,26.15,28.98,26.19l.36.09-3.36,12.96-.33-.05Z"/>
        <path class="cls-5" d="M122.32,96.84c-13.94-3.42-28.68,4.25-30.8,5.41l-13.13,29.93c6.24,13.64,16.55,22.52,18.91,24.43l30.88-5.86,12.34-30.32-18.2-23.59ZM118.5,150.5l.06.36-14.2,2.7-.09-.35c-.05-.18-4.48-17.98-21.13-28.03l-.29-.17.14-.3,6.1-13.92.29.06c.21.03,20.95,3.68,35.99-7.43l.29-.21,9.1,11.78-.36.23c-.2.12-19.71,12.31-15.9,35.28Z"/>
      </g>
    </g>
    <path class="cls-2" d="M213.93,86.62l.3-.2c.35.45.72.88,1.05,1.35,1.99,2.76,3.82,5.62,5.57,8.53,7.61,12.6,12.21,26.22,13.59,40.87,1.13,11.91-.03,23.65-3.18,35.2-3.01,11.03-7.74,21.23-14.53,30.46-10.12,13.75-23.38,23.49-38.76,30.57-.28.13-.57.35-1.06.18.26-.2.38-.33.53-.42,9.13-5.59,17.31-12.36,24.77-20.01,12.31-12.63,20.47-27.57,24.79-44.63,3.54-13.97,4.06-28.05,1.76-42.29-2.01-12.41-6.02-24.07-12.11-35.04-.86-1.55-1.81-3.05-2.72-4.57Z"/>
    <path class="cls-3" d="M70.01,218.88c34.39,18.36,69.43,19.18,105.15,4.25-9.83,6.14-20.38,10.55-31.67,13-16.54,3.59-32.88,2.82-48.83-3.16-8.96-3.36-17.07-8.22-24.65-14.09Z"/>
    <path class="cls-3" d="M63.46,66.86c-.6,1.95-1.94,3.4-2.95,5.06-7.21,11.71-12.1,24.31-14.6,37.82-2.15,11.6-2.44,23.25-.99,34.97,1.13,9.14,3.29,18.01,6.31,26.69.49,1.42.97,2.85,1.45,4.27-.11.04-.22.08-.33.11-1.05-2.45-2.1-4.91-3.15-7.36-4.41-10.27-7.77-20.83-8.96-32.02-1.19-11.18-.58-22.22,2.32-33.11,3.24-12.15,9.15-22.85,17.38-32.31,1.18-1.36,2.35-2.74,3.52-4.12Z"/>
    <path class="cls-3" d="M221.72,87.89c-25.23-29.62-57.22-41.76-95.74-37.12,7.66-4.59,33.53-4.82,48.1-.31,20.65,6.4,36.04,19.54,47.64,37.43Z"/>
    <path class="cls-1" d="M54.12,104.77c-.08-.08-.17-.16-.25-.24.04-.17.05-.35.13-.51.95-1.87,1.91-3.74,2.86-5.62,5.47-10.79,11.96-20.86,20.66-29.39,14.27-13.98,30.99-23.16,50.93-26.03,1.46-.21,2.92-.36,4.38-.53-35.06,9.68-60.87,30.93-78.72,62.31Z"/>
    <path class="cls-2" d="M81.93,214.66c-4.8-2.16-15.36-8.64-21.53-14.61-5.71-5.53-14.34-18.22-14.33-21.16,9.73,13.99,21.88,25.78,35.86,35.77Z"/>
  </g>
</svg>