<?xml version="1.0" encoding="UTF-8"?>
<svg id="Warstwa_1" data-name="Warstwa 1" xmlns="http://www.w3.org/2000/svg" version="1.1" viewBox="0 0 687.09 914.93">
  <defs>
    <style>
      .cls-1 {
        fill: #fd0300;
      }

      .cls-1, .cls-2, .cls-3, .cls-4, .cls-5 {
        stroke-width: 0px;
      }

      .cls-2 {
        fill: #05b85d;
      }

      .cls-3 {
        fill: #fdc904;
      }

      .cls-4 {
        fill: #122dc9;
      }

      .cls-5 {
        fill: #fff;
      }
    </style>
  </defs>
  <rect class="cls-4" x="3.73" y="3.73" width="679.62" height="907.46" rx="35.3" ry="35.3"/>
  <g>
    <path class="cls-5" d="M89.41,828.61h30.77l-2.46,14.11h-49.4l3.58-20.27c6.09.34,12.25.63,18.44.93l-.93,5.23Z"/>
    <path class="cls-5" d="M102.26,755.61l-4.93,28.08h24.87l-2.54,14.26h-24.87l-2.99,16.99c-6.46.11-12.66.19-18.63.26l12.99-73.71h48.09l-2.46,14.11h-29.53Z"/>
    <path class="cls-5" d="M150.39,813.79c-6.2.15-12.28.3-18.22.45l8.89-50.29h18.15l-8.81,49.85Z"/>
    <path class="cls-5" d="M162.56,825.1c6.09.04,12.25.04,18.41,0l-3.1,17.62h-17.96l1.38-7.99c-.82,2.05-1.98,3.77-3.51,5-2.43,1.98-5.53,2.99-9.26,2.99h-5c-5.64,0-9.56-1.42-11.69-4.18-2.13-2.8-2.73-6.68-1.87-11.72l.37-2.13c6.01.15,12.02.22,18.11.3-.15,1.23.04,2.13.49,2.65.52.63,1.64.97,3.36.97h4.82c1.79,0,3.17-.41,4.03-1.23.6-.52,1.05-1.27,1.42-2.28Z"/>
    <path class="cls-5" d="M191.76,763.94l-8.63,48.91c-6.24.19-12.36.37-18.41.56l8.74-49.47h18.3Z"/>
    <path class="cls-5" d="M194.63,825.03c6.01-.07,12.06-.19,18.15-.3l-3.17,18h-18.11l3.14-17.7Z"/>
    <path class="cls-5" d="M240.41,763.64l-2.76,15.72h-6.76c-6.72,0-10.79,3.85-12.13,11.54l-.6,3.4-3.1,17.44c-6.12.26-12.21.49-18.22.67l8.55-48.46h17.96l-1.83,10.38c.45-.97.93-1.98,1.57-2.91,1.53-2.31,3.51-4.18,5.97-5.6,2.43-1.46,5.26-2.17,8.48-2.17h2.88Z"/>
    <path class="cls-5" d="M294.89,768.12c-2.13-2.8-6.24-4.18-12.36-4.18h-18.11c-6.2,0-10.87,1.38-13.96,4.18-3.14,2.76-5.12,6.68-6.01,11.72l-4.89,27.74-.56,3.17c5.94-.22,11.91-.49,17.96-.82l4.93-28.04c.3-1.68.82-2.84,1.57-3.44.75-.6,2.05-.9,3.85-.9h7.39c1.83,0,2.99.3,3.55.9.52.6.63,1.75.34,3.44l-4.82,27.26c5.97-.3,11.99-.63,18-.93l5-28.38c.86-5.04.26-8.96-1.87-11.72ZM271.03,824.73c-.3,1.61-.82,2.73-1.57,3.4-.75.63-2.05.93-3.85.93h-7.39c-1.83,0-2.99-.3-3.51-.93-.52-.67-.67-1.79-.37-3.4l.22-1.19c-5.97.22-11.95.41-17.92.6l-.49,2.69c-.86,5.04-.26,8.92,1.87,11.72,2.13,2.76,6.31,4.18,12.51,4.18h18.11c6.12,0,10.72-1.42,13.82-4.18,3.1-2.8,5.12-6.68,6.01-11.72l.86-4.93c-6.01.34-11.99.63-17.96.93l-.34,1.9Z"/>
    <path class="cls-5" d="M368.44,745.64c-2.24-2.76-6.46-4.14-12.66-4.14h-38.5l-11.61,65.9c6.2-.34,12.4-.75,18.63-1.12l1.42-7.99h14.6c1.83,0,2.99.3,3.55.86.52.6.63,1.76.34,3.47l-.41,2.35c6.16-.41,12.32-.86,18.52-1.34l.11-.56c.52-3.1.45-5.56-.3-7.43s-2.2-3.25-4.41-4.11c2.5-.86,4.48-2.31,5.9-4.41,1.46-2.09,2.43-4.74,3.02-7.95l3.85-21.81c.86-5.04.19-8.92-2.05-11.72ZM351.87,759.31l-3.73,21.17c-.3,1.61-.82,2.73-1.57,3.36-.75.63-2.05.97-3.85.97h-14.6l5.26-29.83h14.6c1.79,0,2.99.26,3.51.86.56.6.67,1.75.37,3.47ZM340.29,824.91c-.3,1.72-.82,2.84-1.57,3.44-.75.6-2.02.9-3.85.9h-14.6l1.64-9.37c-6.2.45-12.43.86-18.67,1.23l-3.81,21.62h38.5c6.2,0,10.94-1.42,14.15-4.18,3.21-2.8,5.26-6.68,6.16-11.72l1.76-9.93c-6.16.56-12.36,1.05-18.56,1.57l-1.16,6.46Z"/>
    <path class="cls-5" d="M429.3,768.12c-2.24-2.8-6.42-4.18-12.51-4.18h-16.99c-6.12,0-10.79,1.38-14.08,4.18-3.25,2.76-5.34,6.68-6.24,11.72l-3.99,22.81c17.62-1.38,35.21-2.95,52.61-4.63l.22-1.19,2.99-16.99c.9-5.04.22-8.96-2.02-11.72ZM413.51,781.75l-2.65,15.08h-16.69l2.65-15.08c.3-1.72.82-2.88,1.57-3.44.75-.6,1.98-.9,3.7-.9h7.69c1.83,0,2.95.3,3.44.9.49.56.6,1.72.3,3.44ZM405.6,824.73c-.26,1.61-.78,2.73-1.46,3.4-.71.63-1.98.93-3.81.93h-7.36c-1.72,0-2.84-.26-3.4-.86-.52-.6-.63-1.76-.34-3.47l1.9-10.83c-5.94.63-11.95,1.23-17.96,1.79l-1.94,11.13c-.9,5.04-.19,8.92,2.09,11.72,2.28,2.76,6.5,4.18,12.58,4.18h16.69c6.09,0,10.75-1.42,14.04-4.18,3.25-2.8,5.34-6.68,6.24-11.72l1.42-8.03h-17.66l-1.05,5.94Z"/>
    <path class="cls-5" d="M459.21,828.12h5.94l-2.58,14.6h-11.2c-6.2,0-10.45-1.42-12.66-4.18-2.24-2.8-2.91-6.68-2.05-11.72l3.29-18.63c6.27-.82,12.47-1.68,18.59-2.58l-3.21,18.18c-.3,1.68-.19,2.84.37,3.44.52.6,1.72.9,3.51.9Z"/>
    <path class="cls-5" d="M476.65,763.94l-2.5,14.11h-10.75l-2.91,16.58c-6.12.71-12.28,1.34-18.48,1.98l3.29-18.56h-7.88l2.5-14.11h7.84l2.5-14.11h18.11l-2.46,14.11h10.75Z"/>
    <polygon class="cls-5" points="503.39 742.29 487.19 742.29 479.78 784.32 484.75 784.32 501.55 752.72 503.39 742.29"/>
    <path class="cls-5" d="M560.4,757.37l-2.02,11.39c-.82,4.7-2.09,8.77-3.81,12.21-.11.22-.22.45-.37.67-1.31,2.46-2.99,5.04-5.11,7.77-.6.82-1.27,1.64-1.98,2.46l-27.48,36.74h28.71l-2.5,14.11h-50.52l2.35-13.33,27.82-35.02,5.79-7.32c.56-.67,1.08-1.31,1.57-1.94,2.02-2.65,3.55-5.04,4.52-7.21,1.23-2.69,2.17-5.82,2.8-9.48l1.49-8.48c.3-1.72.19-2.87-.34-3.47-.56-.56-1.68-.86-3.4-.86h-4.63c-1.83,0-3.1.3-3.85.86-.75.6-1.27,1.76-1.57,3.47l-2.65,15.08h-18.45l3.1-17.66c.9-5.04,2.95-8.92,6.16-11.72,3.21-2.76,7.92-4.14,14.11-4.14h15.38c6.24,0,10.45,1.38,12.77,4.14,2.28,2.8,2.99,6.68,2.09,11.72Z"/>
    <polygon class="cls-5" points="621.1 808.86 611.48 808.86 614.93 789.29 597.44 789.29 593.99 808.86 574.11 808.86 619.35 741.49 600.9 741.49 557.51 807.42 554.74 823.14 561 823.14 564.53 823.14 591.47 823.14 588.02 842.71 605.51 842.71 608.96 823.14 618.58 823.14 621.1 808.86"/>
  </g>
  <path class="cls-5" d="M648.05,0H39.04C17.51,0,0,17.51,0,39.04v836.86c0,21.53,17.51,39.04,39.04,39.04h609.01c21.52,0,39.04-17.51,39.04-39.04V39.04c0-21.53-17.51-39.04-39.04-39.04ZM39.04,7.47h609.01c17.41,0,31.57,14.16,31.57,31.57v642.08H7.47V39.04c0-17.41,14.16-31.57,31.57-31.57ZM648.05,907.46H39.04c-17.41,0-31.57-14.16-31.57-31.57v-187.31h672.15v187.31c0,17.41-14.16,31.57-31.57,31.57Z"/>
  <g>
    <g>
      <path class="cls-5" d="M431.66,164.81c-3.81,1.38-8.77,4.03-13.67,9.19l-77.36-6.53c-3.73-2.76-19.94-13.89-41.56-16.35,8.48-2.09,17.1-3.62,25.76-4.56,12.25,4.41,28.6,11.35,37.23,19.49l.22.22,36.52,2.5.3-.26c.07-.07,8.07-7.47,19.01-9.6,4.59,1.79,9.15,3.77,13.55,5.9Z"/>
      <path class="cls-5" d="M235.74,384.21c-9.04,19.27-14.82,53.65-16.54,65.16-21.06-1.12-36.63-6.76-47.57-17.29-12.81-24.83-20.27-52.8-21.62-80.84,7.51-12.58,30.43-23.9,38.61-27.63,15.53,32.82,39.28,54.14,47.12,60.6Z"/>
      <path class="cls-5" d="M220.06,241.77l-32.41,73.93c-6.42,2.8-25.91,11.84-37.86,23.78.07-7.47.6-14.97,1.57-22.44,16.43-26.21,40.03-23.56,40.25-23.52l.67.07,15.83-33.6.26-.56-.41-.45c-15.79-17.44-15.57-32.97-12.55-43.01,1.87-2.24,3.66-4.29,5.38-6.2,2.35-2.58,4.82-5.15,7.39-7.69-.22,1.98-.19,3.92.15,5.86,1.75,11.05,9.19,28.23,11.72,33.83Z"/>
      <path class="cls-5" d="M333.08,171.46c-17.66,16.73-27.14,42.71-29.98,51.64-33.42-7.21-66.39,7.77-77.1,13.33-2.88-6.57-8.77-20.8-10.19-29.68-1.2-7.54,3.7-15.35,14.94-23.86,2.31-1.72,4.78-3.4,7.24-5.04,6.87-4.41,15.38-8.96,25.32-13.59,9.45-4.41,18.63-6.05,27.18-6.05,19.79,0,35.96,8.92,42.6,13.26Z"/>
      <path class="cls-5" d="M512.42,254.13c-16.43-14.19-32.6-16.2-40.44-16.2h-1.08c-4.52-20.76-20.42-38.68-33.04-50.15-5-4.56-9.48-8.07-12.58-10.34,6.98-6.31,13.33-6.76,15.61-6.68,4.85,2.58,27.86,15.5,50.74,40.4,15.79,17.18,19.86,33.57,20.8,42.98Z"/>
      <path class="cls-5" d="M452.41,375.77c-6.35,6.16-35.69,33.46-68.1,45.14-6.2-4.14-33.34-23.26-59.14-53.69l30.43-74.75c7.84-.6,41.78-2.35,78.67,7.43,3.17,6.61,16.5,36.85,18.15,75.87Z"/>
      <path class="cls-5" d="M406.12,522.03c-2.43,2.95-5.9,6.72-10.01,9.97-34.61,9.04-70.98,8.51-105.22-1.53-1.38-5.15-2.88-12.21-2.61-18.33,11.54,2.76,39.99,6.24,77.4-12.88,5.86,5.23,23.6,19.9,40.44,22.78Z"/>
      <path class="cls-5" d="M542.59,350.94c-.45-.63-.93-1.27-1.46-1.87l-21.1-86.21c.22-1.83.56-6.94-.6-14.08,5.45,10.16,10.01,20.83,13.59,31.77-.19,5-1.08,6.42-1.61,6.83l-.45.34,7.69,38.38.3.22s1.57,1.08,3.44,3.14c.45,7.13.52,14.34.19,21.47Z"/>
      <path class="cls-5" d="M492.14,473.6c-.11.11-.26.26-.37.37-2.99,3.32-6.2,6.61-9.56,9.82-5.53,2.17-7.51,1.87-8.18,1.49l-.52-.3-34.39,24.08-.26.19-.11.34s-1.12,3.77-4.44,8.03c-7.28,3.66-14.9,6.87-22.63,9.6,2.2-2.65,3.7-4.78,4.41-5.82l73.41-47.79c.71,0,1.61.04,2.65,0Z"/>
      <path class="cls-5" d="M263.63,505.64l.63-.71-35.85-31.59-.6.52c-.07.07-8.48,7.28-21.88,5.6-9.48-9.71-18-20.35-25.28-31.74,10.87,5.64,24.12,8.7,40.29,9.3l60.04,51.71c-.82,6.35.22,13.55,1.42,19.01-8.25-2.8-16.39-6.24-24.2-10.12.75-4.78,2.54-8.81,5.41-11.99Z"/>
      <path class="cls-5" d="M538.85,364.61v.15c-.37,46.93-38.98,97.83-40.51,99.88-.41.37-1.57.82-3.47,1.12,15.83-31.33,14.82-53.06,13.93-59.93,18.48-11.35,26.58-29.01,30.06-41.22Z"/>
    </g>
    <g>
      <path class="cls-5" d="M501.18,406.35l-44.25-24.34c-8.77,8.44-37.3,34.2-69.97,46l-16.47,65.38c4.97,4.41,25.24,21.51,41.11,21.51h.6l73.37-47.83c17.96-32.89,16.35-55.48,15.61-60.71ZM489.57,404.67c-21.13,28.86-19.42,68.59-19.38,69v.49l-37.94,27.07-.56-.41c-33.83-23.9-53.62-22.96-53.8-22.96l-1.27.07,7.99-31.36.9.22c39.8,9.22,79.57-54.85,79.98-55.52l.45-.75,24.27,13.33-.64.82Z"/>
      <path class="cls-5" d="M512.72,264.95c-18-19.04-36.55-19.75-42.57-19.42l-28.94,51.27c3.29,6.83,16.99,37.67,18.78,78.22l44.54,24.49c24.98-15.2,28.86-44.32,29.27-48.39l-21.1-86.18ZM494.42,390.41l-.41.93-24.16-13.26.26-.75c16.58-47.49-19.68-92.34-20.01-92.79l-.45-.49,15.42-25.09.82.63c21.92,17.06,48.73,29.35,48.99,29.5l.41.19.11.41,11.2,45.7-.3.34c-17.25,20.98-31.74,54.33-31.89,54.66Z"/>
      <path class="cls-5" d="M418.14,181.65l-77.66-6.57c-18.67,16.06-28.45,44.96-30.58,51.75l44.81,58.06c2.61-.19,8.29-.52,16.06-.52,15.38,0,39.09,1.34,64.3,7.88l28.75-50.97c-5.49-30.32-40.66-56.12-45.66-59.63ZM439.53,275.33c-50.03-38.57-91.93-5.79-92.34-5.45l-.75.6-23.78-30.84.86-.56c29.54-18.86,41.07-57.61,41.18-58.02l.22-.71,37.08,3.14.19.6c8.06,30.02,52.42,65.98,52.87,66.31l.64.52-15.38,25.05-.78-.63Z"/>
      <path class="cls-5" d="M348.05,401.76c-10.31-9.41-19.98-19.38-28.71-29.72l-76.28,14.49c-9.22,18.86-15.23,56.53-16.54,65.23l60.45,52.12c4.18,1.31,34.69,9.6,76.06-11.84l16.43-65.27c-4.97-3.36-16.88-11.84-31.4-25.02ZM363.44,476.66c-48.54-6.61-84.31,15.46-84.68,15.68l-.6.37-35.73-31.55.63-.67c25.54-28.45,17.85-72.66,17.77-73.11l-.15-.9,38.87-7.62.34.67c25.58,51.9,71.35,64.78,71.8,64.89l.9.22-8.33,32.11-.82-.11Z"/>
      <path class="cls-5" d="M303.51,231.01c-34.54-8.48-71.05,10.53-76.32,13.4l-32.52,74.15c15.46,33.79,41,55.78,46.86,60.53l76.51-14.52,30.58-75.12-45.1-58.43ZM294.03,363.98l.15.9-35.17,6.68-.22-.86c-.11-.45-11.09-44.54-52.35-69.45l-.71-.41.34-.75,15.12-34.5.71.15c.52.07,51.9,9.11,89.16-18.41l.71-.52,22.55,29.2-.9.56c-.49.3-48.84,30.51-39.39,87.41Z"/>
    </g>
  </g>
  <path class="cls-2" d="M530.47,205.7c.24-.16.49-.33.73-.49.87,1.11,1.77,2.19,2.6,3.33,4.92,6.84,9.46,13.92,13.81,21.13,18.85,31.23,30.24,64.97,33.68,101.27,2.8,29.52-.08,58.61-7.88,87.21-7.46,27.33-19.17,52.6-36,75.46-25.07,34.06-57.93,58.21-96.02,75.74-.69.32-1.42.87-2.63.44.63-.5.95-.81,1.31-1.03,22.63-13.84,42.88-30.62,61.36-49.59,30.5-31.29,50.71-68.31,61.42-110.56,8.77-34.61,10.06-69.5,4.36-104.78-4.97-30.73-14.92-59.64-30-86.82-2.13-3.84-4.49-7.55-6.75-11.31Z"/>
  <path class="cls-3" d="M173.9,533.38c85.2,45.49,172.03,47.52,260.52,10.53-24.36,15.22-50.51,26.13-78.46,32.2-40.98,8.9-81.47,6.98-120.99-7.83-22.19-8.31-42.29-20.37-61.07-34.9Z"/>
  <path class="cls-3" d="M157.67,156.74c-1.49,4.83-4.8,8.43-7.32,12.53-17.86,29-29.99,60.22-36.18,93.7-5.32,28.73-6.04,57.6-2.44,86.63,2.81,22.63,8.15,44.62,15.64,66.12,1.23,3.52,2.4,7.06,3.59,10.59-.27.09-.54.19-.81.28-2.6-6.08-5.21-12.16-7.81-18.24-10.92-25.46-19.25-51.61-22.2-79.32-2.94-27.71-1.44-55.04,5.75-82.03,8.02-30.11,22.67-56.62,43.06-80.06,2.94-3.38,5.82-6.8,8.72-10.2Z"/>
  <path class="cls-3" d="M549.78,208.86c-62.51-73.38-141.77-103.46-237.21-91.97,18.97-11.38,83.06-11.95,119.18-.76,51.17,15.85,89.29,48.41,118.03,92.73Z"/>
  <path class="cls-1" d="M134.54,250.66c-.21-.2-.42-.4-.63-.59.1-.42.13-.88.32-1.26,2.35-4.64,4.74-9.27,7.1-13.91,13.55-26.74,29.63-51.69,51.19-72.81,35.37-34.64,76.79-57.37,126.19-64.49,3.61-.52,7.24-.88,10.86-1.32-86.87,23.98-150.82,76.63-195.04,154.39Z"/>
  <path class="cls-2" d="M203.44,522.92c-11.88-5.34-38.04-21.39-53.35-36.2-14.15-13.69-35.52-45.15-35.5-52.43,24.1,34.67,54.21,63.86,88.85,88.63Z"/>
</svg>