<?xml version="1.0" encoding="UTF-8"?>
<svg id="Warstwa_1" data-name="Warstwa 1" xmlns="http://www.w3.org/2000/svg" version="1.1" viewBox="0 0 300 300">
  <defs>
    <style>
      .cls-1 {
        fill: #fd0300;
      }

      .cls-1, .cls-2, .cls-3, .cls-4, .cls-5 {
        stroke-width: 0px;
      }

      .cls-2 {
        fill: #05b85d;
      }

      .cls-3 {
        fill: #fdc904;
      }

      .cls-4 {
        fill: #122dc9;
      }

      .cls-5 {
        fill: #fff;
      }
    </style>
  </defs>
  <g>
    <rect class="cls-4" x="1.49" y="1.36" width="297.39" height="297.39" rx="13.37" ry="13.37"/>
    <path class="cls-5" d="M285.51,300.05H14.86c-8.09,0-14.67-6.58-14.67-14.67V14.73C.18,6.63,6.76.05,14.86.05h270.65c8.09,0,14.67,6.58,14.67,14.67v270.65c0,8.09-6.58,14.67-14.67,14.67ZM14.86,2.66c-6.65,0-12.07,5.41-12.07,12.07v270.65c0,6.65,5.41,12.07,12.07,12.07h270.65c6.65,0,12.07-5.41,12.07-12.07V14.73c0-6.65-5.41-12.07-12.07-12.07H14.86Z"/>
  </g>
  <g>
    <g>
      <g>
        <path class="cls-5" d="M190.06,73.89c-1.67.6-3.84,1.76-5.98,4.02l-33.85-2.86c-1.63-1.21-8.72-6.08-18.19-7.16,3.71-.91,7.48-1.58,11.27-1.99,5.36,1.93,12.52,4.97,16.29,8.53l.1.1,15.98,1.09.13-.11s3.53-3.27,8.32-4.2c2.01.78,4,1.65,5.93,2.58Z"/>
        <path class="cls-5" d="M104.33,169.89c-3.95,8.43-6.49,23.48-7.24,28.51-9.21-.49-16.03-2.96-20.82-7.56-5.6-10.87-8.87-23.1-9.46-35.37,3.28-5.51,13.32-10.46,16.89-12.09,6.8,14.36,17.19,23.69,20.62,26.52Z"/>
        <path class="cls-5" d="M97.47,107.56l-14.18,32.35c-2.81,1.23-11.34,5.18-16.57,10.41.03-3.27.26-6.55.69-9.82,7.19-11.47,17.51-10.31,17.61-10.29l.29.03,6.93-14.7.11-.25-.18-.2c-6.91-7.63-6.81-14.43-5.49-18.82.82-.98,1.6-1.88,2.35-2.71,1.03-1.13,2.11-2.25,3.24-3.37-.1.87-.08,1.72.07,2.57.77,4.84,4.02,12.35,5.13,14.8Z"/>
        <path class="cls-5" d="M146.92,76.8c-7.73,7.32-11.88,18.69-13.12,22.6-14.62-3.15-29.05,3.4-33.74,5.83-1.26-2.88-3.84-9.1-4.46-12.99-.52-3.3,1.62-6.72,6.54-10.44,1.01-.75,2.09-1.49,3.17-2.21,3.01-1.93,6.73-3.92,11.08-5.95,4.13-1.93,8.15-2.65,11.89-2.65,8.66,0,15.73,3.9,18.64,5.8Z"/>
        <path class="cls-5" d="M225.4,112.97c-7.19-6.21-14.26-7.09-17.69-7.09h-.47c-1.98-9.08-8.94-16.93-14.46-21.94-2.19-1.99-4.15-3.53-5.51-4.53,3.06-2.76,5.83-2.96,6.83-2.92,2.12,1.13,12.19,6.78,22.2,17.68,6.91,7.52,8.69,14.69,9.1,18.81Z"/>
        <path class="cls-5" d="M199.14,166.2c-2.78,2.7-15.62,14.64-29.8,19.75-2.71-1.81-14.59-10.18-25.88-23.49l13.32-32.71c3.43-.26,18.28-1.03,34.43,3.25,1.39,2.89,7.22,16.13,7.94,33.2Z"/>
        <path class="cls-5" d="M178.88,230.2c-1.06,1.29-2.58,2.94-4.38,4.36-15.15,3.95-31.06,3.73-46.04-.67-.6-2.25-1.26-5.34-1.14-8.02,5.05,1.21,17.5,2.73,33.87-5.64,2.57,2.29,10.33,8.71,17.69,9.97Z"/>
        <path class="cls-5" d="M238.6,155.34c-.2-.28-.41-.56-.64-.82l-9.23-37.73c.1-.8.24-3.04-.26-6.16,2.39,4.44,4.38,9.12,5.95,13.9-.08,2.19-.47,2.81-.7,2.99l-.2.15,3.37,16.8.13.1s.69.47,1.5,1.37c.2,3.12.23,6.27.08,9.39Z"/>
        <path class="cls-5" d="M216.53,209.01s-.11.11-.16.16c-1.31,1.45-2.71,2.89-4.18,4.3-2.42.95-3.28.82-3.58.65l-.23-.13-15.05,10.54-.11.08-.05.15s-.49,1.65-1.94,3.51c-3.19,1.6-6.52,3.01-9.9,4.2.96-1.16,1.62-2.09,1.93-2.55l32.12-20.91c.31,0,.7.02,1.16,0Z"/>
        <path class="cls-5" d="M116.53,223.03l.28-.31-15.69-13.82-.26.23s-3.71,3.19-9.57,2.45c-4.15-4.25-7.87-8.9-11.06-13.89,4.75,2.47,10.55,3.81,17.63,4.07l26.27,22.63c-.36,2.78.1,5.93.62,8.32-3.61-1.23-7.17-2.73-10.59-4.43.33-2.09,1.11-3.86,2.37-5.24Z"/>
        <path class="cls-5" d="M236.96,161.32v.07c-.16,20.54-17.06,42.81-17.73,43.71-.18.16-.69.36-1.52.49,6.93-13.71,6.49-23.22,6.09-26.22,8.09-4.97,11.63-12.7,13.15-18.04Z"/>
      </g>
      <g>
        <path class="cls-5" d="M220.48,179.58l-19.36-10.65c-3.84,3.69-16.32,14.97-30.62,20.13l-7.21,28.61c2.17,1.93,11.04,9.41,17.99,9.41h.26l32.11-20.93c7.86-14.39,7.16-24.28,6.83-26.57ZM215.4,178.85c-9.25,12.63-8.5,30.01-8.48,30.19v.21l-16.6,11.85-.25-.18c-14.8-10.46-23.46-10.05-23.54-10.05l-.56.03,3.5-13.72.39.1c17.42,4.04,34.82-24,35-24.3l.2-.33,10.62,5.83-.28.36Z"/>
        <path class="cls-5" d="M225.53,117.71c-7.88-8.33-16-8.64-18.63-8.5l-12.66,22.43c1.44,2.99,7.43,16.49,8.22,34.23l19.49,10.72c10.93-6.65,12.63-19.39,12.81-21.17l-9.23-37.71ZM217.52,172.61l-.18.41-10.57-5.8.11-.33c7.25-20.78-8.61-40.41-8.76-40.6l-.2-.21,6.75-10.98.36.28c9.59,7.47,21.32,12.84,21.44,12.91l.18.08.05.18,4.9,20-.13.15c-7.55,9.18-13.89,23.77-13.95,23.92Z"/>
        <path class="cls-5" d="M184.14,81.26l-33.98-2.88c-8.17,7.03-12.45,19.67-13.38,22.65l19.61,25.41c1.14-.08,3.63-.23,7.03-.23,6.73,0,17.11.59,28.14,3.45l12.58-22.3c-2.4-13.27-17.79-24.56-19.98-26.09ZM193.5,122.25c-21.89-16.88-40.23-2.53-40.41-2.39l-.33.26-10.41-13.5.38-.25c12.92-8.25,17.97-25.21,18.02-25.39l.1-.31,16.22,1.37.08.26c3.53,13.14,22.94,28.87,23.14,29.02l.28.23-6.73,10.96-.34-.28Z"/>
        <path class="cls-5" d="M153.47,177.57c-4.51-4.12-8.74-8.48-12.56-13.01l-33.38,6.34c-4.04,8.25-6.67,24.74-7.24,28.54l26.45,22.81c1.83.57,15.18,4.2,33.28-5.18l7.19-28.56c-2.17-1.47-7.38-5.18-13.74-10.95ZM160.21,210.35c-21.24-2.89-36.89,6.76-37.06,6.86l-.26.16-15.64-13.81.28-.29c11.18-12.45,7.81-31.8,7.78-31.99l-.07-.39,17.01-3.33.15.29c11.19,22.71,31.22,28.35,31.42,28.4l.39.1-3.64,14.05-.36-.05Z"/>
        <path class="cls-5" d="M133.98,102.86c-15.11-3.71-31.09,4.61-33.4,5.87l-14.23,32.45c6.76,14.79,17.94,24.41,20.51,26.48l33.48-6.36,13.38-32.87-19.74-25.57ZM129.83,161.04l.07.39-15.39,2.92-.1-.38c-.05-.2-4.85-19.49-22.91-30.39l-.31-.18.15-.33,6.62-15.1.31.07c.23.03,22.71,3.99,39.02-8.05l.31-.23,9.87,12.78-.39.25c-.21.13-21.37,13.35-17.24,38.25Z"/>
      </g>
    </g>
    <path class="cls-2" d="M233.29,91.78l.32-.22c.38.49.78.96,1.14,1.46,2.15,2.99,4.14,6.09,6.04,9.25,8.25,13.67,13.23,28.43,14.74,44.31,1.22,12.92-.03,25.65-3.45,38.16-3.26,11.96-8.39,23.02-15.75,33.02-10.97,14.9-25.35,25.47-42.02,33.14-.3.14-.62.38-1.15.19.28-.22.41-.35.57-.45,9.9-6.06,18.76-13.4,26.85-21.7,13.35-13.69,22.19-29.89,26.88-48.38,3.84-15.14,4.4-30.41,1.91-45.85-2.17-13.45-6.53-26.1-13.13-37.99-.93-1.68-1.97-3.3-2.95-4.95Z"/>
    <path class="cls-3" d="M77.27,235.17c37.28,19.91,75.28,20.79,114,4.61-10.66,6.66-22.1,11.43-34.33,14.09-17.93,3.89-35.65,3.05-52.94-3.42-9.71-3.64-18.5-8.92-26.72-15.27Z"/>
    <path class="cls-3" d="M70.17,70.36c-.65,2.11-2.1,3.69-3.2,5.48-7.81,12.69-13.12,26.35-15.83,41-2.33,12.57-2.64,25.21-1.07,37.91,1.23,9.9,3.57,19.52,6.85,28.93.54,1.54,1.05,3.09,1.57,4.63-.12.04-.24.08-.35.12-1.14-2.66-2.28-5.32-3.42-7.98-4.78-11.14-8.42-22.58-9.71-34.71-1.29-12.12-.63-24.09,2.51-35.89,3.51-13.17,9.92-24.77,18.84-35.03,1.28-1.48,2.55-2.98,3.82-4.46Z"/>
    <path class="cls-3" d="M241.75,93.16c-27.35-32.11-62.04-45.27-103.8-40.25,8.3-4.98,36.35-5.23,52.15-.33,22.39,6.93,39.07,21.18,51.65,40.58Z"/>
    <path class="cls-1" d="M60.04,111.45c-.09-.09-.18-.17-.27-.26.05-.18.06-.38.14-.55,1.03-2.03,2.08-4.06,3.11-6.09,5.93-11.7,12.96-22.62,22.4-31.86,15.48-15.16,33.6-25.11,55.22-28.22,1.58-.23,3.17-.39,4.75-.58-38.01,10.5-66,33.53-85.35,67.56Z"/>
    <path class="cls-2" d="M90.19,230.59c-5.2-2.34-16.65-9.36-23.34-15.84-6.19-5.99-15.55-19.76-15.53-22.94,10.55,15.17,23.72,27.95,38.88,38.78Z"/>
  </g>
</svg>